<?xml version="1.0" standalone="no"?>
<!DOCTYPE svg PUBLIC "-//W3C//DTD SVG 20010904//EN"
 "http://www.w3.org/TR/2001/REC-SVG-20010904/DTD/svg10.dtd">
<svg version="1.0" xmlns="http://www.w3.org/2000/svg"
 width="1760.000000pt" height="1760.000000pt" viewBox="0 0 1760.000000 1760.000000"
 preserveAspectRatio="xMidYMid meet">
<metadata>
Created by potrace 1.11, written by Peter Selinger 2001-2013
</metadata>
<g transform="translate(0.000000,1760.000000) scale(0.100000,-0.100000)"
fill="#000000" stroke="none">
<path d="M13990 12355 c-7 -9 -10 -18 -7 -22 4 -3 2 -12 -4 -20 -6 -7 -9 -13
-6 -13 4 0 0 -18 -8 -40 -8 -22 -12 -40 -10 -40 3 0 0 -11 -5 -25 -5 -14 -12
-36 -14 -48 -4 -23 -19 -86 -40 -174 -3 -10 -46 -182 -96 -383 -50 -201 -94
-376 -96 -390 -3 -14 -17 -68 -31 -120 -14 -52 -26 -99 -27 -105 -4 -15 -29
-129 -32 -137 -1 -5 -2 -9 -4 -10 -1 -2 -3 -10 -5 -18 -1 -8 -24 -101 -50
-205 -25 -105 -48 -197 -50 -205 -2 -8 -22 -89 -45 -180 -23 -91 -43 -176 -46
-190 -4 -21 -17 -68 -30 -115 -2 -5 -6 -26 -10 -45 -3 -19 -10 -43 -16 -53 -5
-10 -7 -21 -4 -24 2 -3 0 -17 -6 -32 -8 -22 -14 -45 -22 -86 -1 -5 -5 -16 -9
-22 -5 -7 -6 -13 -3 -13 2 0 -4 -33 -16 -72 -11 -40 -22 -82 -24 -93 -4 -21
-13 -60 -19 -85 -2 -8 -4 -15 -5 -15 -2 0 -5 -12 -13 -55 -3 -14 -21 -88 -41
-165 -20 -77 -38 -149 -40 -160 -2 -11 -12 -49 -21 -85 -9 -36 -18 -72 -20
-80 -2 -8 -13 -53 -25 -100 -21 -81 -25 -100 -35 -145 -6 -25 0 -2 -86 -345
-39 -157 -72 -289 -73 -295 -1 -5 -10 -39 -19 -75 -36 -136 -129 -516 -132
-537 -2 -12 -6 -27 -10 -34 -4 -6 -9 -23 -10 -38 -1 -14 -8 -46 -15 -71 -15
-50 -18 -62 -24 -87 -3 -10 -5 -20 -6 -23 -1 -3 -2 -8 -2 -11 1 -4 -3 -22 -9
-40 -6 -19 -12 -45 -15 -59 -3 -14 -11 -47 -19 -75 -8 -27 -16 -61 -19 -75 -2
-14 -14 -63 -26 -110 -12 -47 -24 -92 -25 -100 -2 -8 -14 -53 -25 -100 -12
-47 -23 -92 -25 -100 -2 -8 -11 -44 -20 -80 -9 -36 -18 -76 -21 -89 -3 -14 -7
-28 -9 -31 -2 -4 -7 -20 -9 -36 -3 -16 -22 -92 -42 -169 -19 -77 -38 -151 -41
-165 -10 -50 -11 -55 -13 -55 -2 0 -5 -12 -13 -50 -3 -11 -15 -60 -27 -110
-12 -49 -24 -101 -26 -114 -3 -14 -7 -28 -10 -33 -8 -13 -17 -60 -18 -93 -1
-33 -11 -29 129 -50 28 -4 52 -9 55 -10 3 -2 48 -11 100 -20 52 -9 106 -18
120 -21 14 -3 39 -7 55 -10 17 -2 39 -6 50 -8 44 -9 120 -20 128 -18 4 1 7 -1
7 -5 0 -5 15 -9 33 -10 l33 -1 27 106 c16 59 30 118 33 132 3 14 12 52 21 85
8 33 17 68 19 78 8 36 14 57 64 257 28 113 53 214 55 225 2 11 4 20 5 20 1 0
3 7 5 15 10 51 47 197 52 210 3 8 7 22 8 30 6 39 16 84 20 90 2 3 6 18 9 33 4
15 8 39 11 54 3 14 10 34 16 45 5 10 8 18 5 18 -2 0 7 42 20 93 14 50 27 103
30 117 3 14 7 33 10 42 3 9 6 25 8 35 3 10 34 137 71 283 36 146 68 276 71
290 3 14 7 33 10 42 3 9 7 25 9 35 2 10 13 54 25 98 11 44 22 89 25 100 2 11
4 20 5 20 1 0 4 11 5 25 2 14 36 150 75 303 38 152 72 287 74 300 3 12 5 22 6
22 1 0 3 7 5 15 1 9 14 61 29 117 14 55 28 112 30 124 3 13 5 24 6 24 1 0 3 9
5 19 2 11 7 31 11 45 4 14 8 31 9 36 1 6 3 12 4 15 2 3 4 12 6 20 1 8 15 65
30 125 15 61 29 119 32 130 8 39 11 50 13 53 3 2 3 2 15 57 11 54 8 40 54 225
23 91 44 172 45 180 2 8 18 69 34 135 17 66 33 131 36 145 3 14 24 97 46 185
23 88 43 171 46 185 3 14 14 61 25 105 12 44 23 88 25 98 2 10 6 27 9 37 3 10
7 27 9 37 2 10 14 54 25 98 12 44 23 89 25 100 2 11 6 30 10 42 4 12 8 30 10
40 3 10 30 119 61 243 31 124 58 236 61 250 3 14 10 43 16 65 5 22 12 47 14
55 13 57 100 406 124 500 16 63 31 124 33 135 2 11 7 27 10 35 6 16 14 54 23
108 5 29 3 33 -13 31 -10 -2 -27 0 -38 4 -11 4 -37 9 -57 11 -21 3 -55 8 -75
12 -21 4 -47 8 -58 10 -11 2 -42 8 -70 14 -27 5 -66 12 -85 14 -31 5 -208 36
-281 51 -17 3 -31 -1 -39 -10z"/>
<path d="M10447 11904 c-1 -1 -42 -5 -91 -8 -49 -4 -92 -9 -95 -10 -3 -2 -29
-6 -58 -10 -77 -9 -285 -58 -353 -84 -8 -3 -17 -6 -20 -7 -7 -2 -32 -13 -117
-47 -84 -34 -293 -143 -303 -158 -3 -4 -16 -13 -29 -20 -14 -7 -30 -17 -35
-21 -6 -5 -38 -29 -71 -54 -102 -76 -137 -107 -235 -205 -89 -88 -174 -185
-210 -240 -8 -12 -27 -40 -42 -61 -16 -21 -28 -46 -28 -54 0 -8 -4 -15 -8 -15
-11 0 -95 -178 -120 -255 -24 -70 -46 -146 -47 -160 -1 -5 -4 -23 -8 -40 -30
-134 -41 -359 -24 -490 16 -125 14 -119 72 -305 14 -43 116 -234 134 -250 3
-3 22 -25 41 -50 67 -88 155 -179 235 -245 27 -22 59 -50 72 -62 13 -13 27
-23 30 -23 3 0 21 -11 39 -25 18 -14 37 -25 42 -25 6 0 12 -4 14 -8 3 -10 104
-69 163 -97 22 -10 91 -42 153 -72 62 -29 115 -53 117 -53 3 0 29 -11 59 -25
57 -26 107 -46 116 -47 3 0 16 -6 30 -13 31 -16 82 -38 95 -41 16 -3 262 -100
330 -129 156 -68 421 -212 458 -250 9 -8 18 -15 21 -15 4 0 20 -12 38 -27 150
-131 211 -257 204 -426 -4 -93 -11 -127 -32 -168 -8 -16 -12 -29 -9 -29 2 0
-9 -23 -26 -51 -39 -63 -118 -141 -186 -185 -54 -36 -163 -87 -163 -77 0 3 -6
1 -12 -4 -61 -47 -446 -65 -608 -28 -14 3 -37 7 -51 10 -45 8 -212 64 -241 81
-16 8 -28 13 -28 9 0 -3 -45 18 -101 47 -105 55 -108 57 -174 97 -38 24 -215
150 -225 161 -3 3 -32 27 -65 55 -79 66 -118 101 -170 153 l-43 43 -40 -53
c-21 -29 -86 -118 -144 -198 -171 -237 -330 -457 -385 -533 -29 -40 -52 -76
-52 -82 -1 -17 133 -163 200 -219 53 -44 219 -169 256 -191 17 -11 87 -55 155
-97 150 -93 277 -155 422 -203 59 -20 116 -38 125 -40 9 -2 50 -11 91 -20 41
-9 91 -18 110 -21 19 -3 51 -7 70 -10 120 -19 362 -18 550 0 126 13 434 95
508 135 9 6 49 24 87 41 84 38 280 153 305 180 3 3 24 19 47 36 137 99 364
326 453 454 13 19 27 37 30 40 18 15 164 280 155 280 -3 0 1 10 8 23 26 41 92
245 102 317 4 24 9 48 11 52 3 4 7 29 10 55 3 26 7 64 9 83 10 73 6 308 -5
375 -7 39 -14 84 -17 100 -3 17 -9 38 -14 48 -5 9 -7 17 -5 17 10 0 -53 159
-88 226 -29 54 -101 163 -141 212 -31 39 -200 205 -232 228 -21 15 -42 33 -48
39 -16 17 -167 111 -219 136 -25 13 -46 27 -46 31 0 4 -6 8 -13 8 -6 0 -68 25
-137 55 -217 96 -209 93 -420 175 -102 40 -198 78 -215 85 -16 7 -68 27 -114
45 -95 38 -347 164 -372 186 -8 8 -18 12 -21 9 -3 -3 -13 4 -23 15 -10 11 -23
20 -29 20 -6 0 -23 11 -38 25 -15 14 -30 25 -34 25 -8 0 -12 3 -90 77 -110
103 -154 205 -149 343 4 119 12 150 63 230 70 111 183 191 322 231 135 38 318
43 490 15 197 -34 468 -124 690 -230 103 -49 232 -117 240 -126 8 -9 129 -90
135 -90 3 0 20 33 39 73 18 39 48 104 66 142 63 134 112 240 143 305 17 36 31
67 31 70 1 3 18 39 38 80 20 41 50 105 67 143 45 98 84 182 125 267 27 58 32
78 23 86 -13 12 -269 118 -287 119 -3 0 -9 3 -15 6 -22 14 -328 98 -413 114
-13 2 -31 7 -40 9 -9 3 -37 8 -62 11 -25 3 -52 8 -61 11 -9 2 -39 7 -65 10
-27 3 -65 7 -84 9 -121 13 -483 27 -493 19z"/>
<path d="M6319 11876 c-4 -4 -102 -12 -249 -21 -30 -2 -89 -7 -130 -10 -41 -3
-102 -8 -135 -10 -33 -2 -98 -6 -145 -9 -47 -3 -103 -8 -125 -10 -22 -2 -87
-7 -145 -11 -58 -3 -125 -8 -150 -10 -25 -2 -83 -7 -130 -10 -220 -15 -218
-15 -225 -51 -2 -11 -4 -19 -5 -19 -1 0 -3 -7 -5 -15 -2 -8 -11 -37 -20 -65
-10 -27 -18 -54 -19 -60 -1 -5 -15 -50 -31 -100 -16 -49 -29 -92 -30 -95 0 -3
-4 -16 -9 -30 -4 -14 -30 -97 -57 -185 -28 -88 -54 -171 -59 -185 -9 -27 -63
-202 -65 -210 -1 -6 -34 -111 -80 -260 -56 -176 -138 -441 -140 -450 -5 -23
-58 -189 -65 -205 -5 -11 -18 -54 -30 -95 -11 -41 -27 -92 -35 -112 -8 -21
-12 -38 -9 -38 4 0 2 -6 -3 -12 -6 -7 -16 -35 -23 -63 -7 -27 -16 -54 -19 -60
-3 -5 -6 -14 -7 -20 -3 -19 -96 -320 -110 -355 -8 -19 -16 -47 -18 -62 -3 -15
-8 -33 -11 -39 -4 -6 -13 -32 -20 -57 -7 -26 -39 -128 -70 -227 -31 -99 -58
-187 -60 -195 -6 -28 -95 -295 -104 -315 -5 -11 -30 -78 -56 -150 -75 -210
-96 -268 -112 -305 -8 -20 -15 -42 -17 -50 -2 -8 -6 -22 -9 -30 -3 -8 -23 -60
-42 -115 -20 -55 -39 -107 -42 -115 -4 -8 -7 -17 -7 -20 -3 -14 -80 -219 -92
-247 -8 -17 -14 -34 -14 -38 0 -9 -188 -532 -201 -560 -5 -11 -11 -31 -14 -44
-2 -12 -8 -28 -13 -35 -9 -11 -36 -93 -37 -110 0 -11 17 -14 135 -21 52 -3
111 -8 130 -10 19 -2 74 -6 122 -9 48 -3 106 -8 130 -11 24 -3 79 -7 123 -10
44 -2 103 -7 130 -9 28 -3 88 -8 135 -11 46 -4 87 -8 90 -10 17 -10 41 46 65
150 1 6 4 17 7 25 13 34 100 360 97 362 -1 2 3 12 9 24 6 11 13 32 16 45 3 13
30 114 61 224 31 110 58 207 60 215 2 8 13 49 25 90 42 147 61 215 66 239 3
13 9 32 15 43 5 10 8 18 5 18 -2 0 2 19 9 43 l12 42 958 0 958 0 16 -60 c16
-58 20 -72 22 -77 0 -2 2 -12 4 -23 2 -11 23 -92 46 -180 22 -88 42 -169 44
-180 2 -11 9 -40 16 -65 7 -25 13 -49 15 -55 11 -49 57 -233 61 -245 3 -8 7
-22 8 -30 1 -8 17 -71 35 -140 18 -69 34 -134 36 -145 11 -61 87 -342 95 -352
7 -7 20 -8 42 -3 32 9 58 13 152 26 28 3 59 8 70 10 11 2 38 6 60 9 22 3 51 7
65 10 50 10 275 44 330 50 14 2 26 4 28 5 1 1 10 3 20 4 9 1 42 6 72 11 30 4
62 9 70 10 17 2 123 18 130 20 3 1 29 5 58 9 33 5 52 12 49 20 -2 6 -30 90
-61 186 -31 96 -60 182 -63 190 -4 8 -7 17 -8 20 0 3 -7 23 -14 45 -16 51 -20
64 -22 70 0 2 -14 42 -30 87 -16 46 -31 90 -33 98 -10 38 -69 217 -77 235 -6
12 -11 27 -13 35 -2 8 -6 22 -9 30 -11 25 -108 329 -108 337 -1 5 -5 14 -11
21 -6 6 -8 12 -5 12 4 0 -5 30 -20 68 -14 37 -26 72 -27 77 -2 11 -35 112 -43
135 -3 8 -7 20 -9 25 -1 6 -26 80 -54 165 -29 85 -53 162 -55 170 -2 8 -8 29
-15 45 -6 17 -11 31 -11 32 0 2 -1 8 -4 15 -2 7 -18 60 -35 118 -17 58 -37
123 -44 145 -21 63 -39 128 -43 155 -3 13 -8 29 -12 35 -8 10 -21 53 -26 85
-2 8 -10 34 -18 58 -9 23 -14 42 -11 42 2 0 0 9 -6 21 -6 11 -13 28 -15 37 -2
9 -22 78 -45 152 -23 74 -43 142 -45 150 -2 8 -13 47 -25 85 -13 39 -23 75
-24 80 -5 21 -39 131 -47 150 -5 11 -10 30 -12 42 -2 12 -6 26 -10 29 -4 4 -7
17 -7 29 0 12 -3 25 -7 29 -4 3 -8 13 -9 20 -2 12 -48 167 -77 256 -6 19 -12
40 -13 45 -2 6 -12 42 -24 80 -12 39 -23 77 -25 85 -2 8 -25 83 -50 165 -26
83 -50 164 -55 180 -35 119 -48 162 -53 175 -5 14 -47 153 -52 175 -1 6 -5 17
-8 25 -8 22 -29 89 -31 103 -2 13 -32 112 -78 257 -16 52 -31 103 -33 113 -6
28 -66 217 -69 217 -1 0 -5 -2 -7 -4z m-702 -1058 c0 -7 10 -47 23 -88 12 -41
25 -88 30 -105 5 -16 18 -61 30 -100 24 -78 54 -182 76 -265 8 -30 17 -61 19
-68 3 -7 5 -16 6 -20 1 -4 10 -31 20 -59 10 -29 16 -53 14 -53 -2 0 5 -24 16
-52 10 -29 19 -61 19 -70 0 -10 4 -26 10 -36 7 -14 34 -100 55 -182 2 -8 16
-55 31 -105 14 -49 27 -94 29 -100 1 -5 5 -17 8 -25 6 -17 88 -300 91 -315 3
-13 36 -123 47 -155 5 -14 22 -72 38 -130 16 -58 37 -129 46 -158 9 -30 14
-56 11 -59 -6 -7 -1405 -7 -1412 0 -3 3 16 70 41 148 26 79 58 180 72 224 14
44 37 114 50 155 14 41 26 82 28 90 2 8 4 16 5 18 2 1 4 7 5 12 1 6 3 11 5 13
1 1 3 9 5 17 1 8 12 42 23 75 11 33 37 114 57 180 20 66 40 129 45 140 8 19
39 117 45 140 1 6 5 17 8 25 8 22 38 119 41 133 2 7 6 19 9 27 13 34 69 206
73 223 1 10 22 75 44 145 23 70 43 132 44 137 2 6 6 17 9 25 12 31 49 151 51
165 1 8 5 18 9 21 4 4 7 16 7 26 0 15 8 18 58 18 40 0 59 -4 59 -12z"/>
<path d="M1935 10062 c-23 -20 -76 -68 -119 -107 -43 -38 -88 -79 -101 -90
-30 -27 -168 -152 -215 -195 -21 -19 -73 -66 -116 -105 -43 -38 -91 -81 -105
-95 -31 -28 -157 -142 -186 -168 -32 -28 -183 -164 -218 -197 -18 -16 -61 -55
-95 -85 -34 -30 -77 -68 -95 -85 -18 -16 -70 -64 -115 -105 -46 -41 -88 -79
-94 -85 -24 -22 -213 -192 -250 -225 -21 -19 -48 -44 -60 -55 -12 -11 -54 -49
-93 -84 l-73 -64 23 -21 c13 -12 47 -41 76 -66 30 -25 61 -52 70 -60 9 -9 45
-40 81 -70 36 -30 72 -61 81 -70 9 -8 37 -33 63 -55 26 -22 58 -49 70 -60 12
-11 48 -42 81 -70 32 -27 97 -84 144 -125 48 -41 115 -100 150 -130 36 -30 85
-73 111 -95 25 -22 75 -65 110 -95 35 -30 71 -62 80 -70 9 -8 43 -37 75 -65
33 -27 71 -60 85 -72 14 -12 34 -30 46 -40 12 -10 48 -41 80 -69 108 -95 379
-328 433 -374 29 -25 72 -62 95 -82 22 -21 44 -38 48 -38 3 0 19 14 35 31 15
17 37 41 48 53 11 12 52 57 90 101 39 43 84 93 100 110 17 18 51 56 77 86 26
30 72 81 103 114 30 33 55 65 55 70 -1 6 -22 27 -48 48 -26 20 -61 49 -78 65
-18 15 -58 50 -90 77 -32 28 -69 60 -82 73 -14 12 -46 40 -71 61 -25 22 -55
48 -67 58 -12 10 -45 38 -74 63 -28 25 -65 56 -80 70 -16 14 -50 44 -77 67
-78 67 -228 197 -233 203 -3 3 -34 30 -70 60 -36 30 -67 57 -70 60 -3 3 -36
32 -75 64 -38 33 -75 64 -80 70 -6 6 -39 36 -75 66 -36 30 -73 62 -83 71 -20
18 -34 2 132 156 41 37 99 92 129 121 30 28 56 52 57 52 2 0 26 21 53 48 53
51 191 179 311 289 41 37 94 87 118 111 24 23 46 42 47 42 2 0 35 30 74 68 38
37 89 85 113 106 24 21 92 84 151 139 l107 100 -19 26 c-10 14 -33 42 -51 61
-60 67 -114 127 -169 190 -30 35 -64 74 -75 86 -11 12 -31 35 -44 50 -55 65
-95 109 -105 116 -6 3 -29 -10 -51 -30z"/>
<path d="M15558 10058 c-24 -24 -70 -75 -103 -112 -33 -37 -78 -87 -100 -111
-22 -24 -67 -74 -100 -111 -73 -82 -90 -101 -136 -151 -25 -27 -33 -42 -25
-48 6 -6 60 -53 121 -105 60 -52 115 -99 121 -105 16 -14 124 -109 154 -135
76 -65 142 -122 295 -255 94 -81 184 -159 200 -174 17 -14 77 -66 135 -116
150 -128 160 -137 189 -164 14 -13 48 -42 75 -65 85 -72 82 -64 39 -103 -21
-19 -68 -63 -104 -96 -37 -34 -108 -100 -159 -147 -50 -47 -117 -109 -148
-138 -32 -30 -91 -84 -132 -122 -41 -38 -96 -88 -121 -112 -25 -23 -90 -83
-144 -133 -54 -49 -124 -115 -156 -145 -32 -30 -95 -89 -141 -132 -46 -42
-103 -95 -127 -117 l-45 -41 26 -28 c24 -26 67 -75 105 -118 10 -12 47 -54 83
-95 36 -40 75 -84 87 -99 13 -14 39 -43 59 -65 20 -22 52 -59 71 -82 20 -24
39 -43 43 -43 4 0 23 14 41 31 78 71 128 116 165 149 21 19 82 74 134 121 52
47 112 101 134 120 21 19 50 45 65 59 15 14 64 59 110 100 46 41 99 89 116
105 90 82 103 93 107 89 3 -2 11 7 18 21 7 14 17 25 21 25 4 0 23 15 41 33 19
17 74 68 124 112 49 44 101 91 115 105 14 14 54 50 89 80 34 30 74 66 89 79
14 13 49 44 77 70 28 25 88 80 134 121 46 41 93 84 105 95 13 11 58 52 101 91
44 39 105 94 137 122 l57 52 -31 27 c-18 16 -37 33 -43 38 -6 6 -38 33 -71 60
-33 28 -64 55 -70 61 -5 7 -44 40 -85 74 -41 35 -85 73 -96 84 -12 12 -46 41
-75 66 -29 25 -85 72 -124 106 -38 33 -81 69 -94 80 -13 10 -35 29 -49 42 -14
12 -50 44 -80 70 -30 26 -66 57 -79 70 -12 13 -23 21 -23 19 0 -4 -81 66 -132
115 -15 14 -28 25 -28 22 0 -2 -8 4 -18 14 -10 9 -49 44 -86 77 -38 33 -74 65
-80 70 -6 6 -40 35 -76 65 -35 30 -72 62 -81 70 -9 8 -27 24 -40 34 -20 16
-140 119 -175 151 -15 13 -50 44 -174 149 -58 50 -124 108 -147 129 l-42 40
-43 -45z"/>
</g>
</svg>
